<svg width="855" height="428" viewBox="0 0 855 428" fill="none" xmlns="http://www.w3.org/2000/svg">
<g clip-path="url(#clip0)">
<rect width="855" height="428" fill="white" fill-opacity="0.8"/>
<path d="M855 -0.330063H0V427.67H855V-0.330063Z" fill="#F4EEE8"/>
<path d="M595.249 172.01C586.665 171.439 578.851 178.604 577.795 188.014C576.739 197.424 582.842 205.515 591.425 206.086C600.009 206.658 607.823 199.493 608.879 190.083C609.935 180.673 603.833 172.582 595.249 172.01Z" fill="#31140C"/>
<path d="M588.859 174.812C581.891 174.348 575.548 180.164 574.691 187.803C573.834 195.442 578.787 202.01 585.755 202.473C592.723 202.937 599.066 197.121 599.923 189.482C600.78 181.843 595.827 175.275 588.859 174.812Z" fill="#A5403E"/>
<path d="M628.435 136.814C645.986 137.062 674.115 142.082 680.919 176.98C687.722 211.879 700.357 222.547 700.357 222.547C700.357 222.547 604.395 241.18 572.435 220.439C572.435 220.439 581.296 203.648 581.782 185.211C582.268 166.774 581.782 136.156 628.435 136.814Z" fill="#3E3377"/>
<path d="M574.116 240.551L565.699 383.184L564.498 403.51C564.498 403.51 556.79 405.631 546.303 407.771C526.852 411.741 497.842 415.777 490.758 406.473C486.347 400.676 491.07 380.079 498.718 356.434C504.729 337.855 512.539 317.4 519.144 300.758C524.902 286.235 529.742 274.617 531.661 269.685C538.582 251.91 561.932 237.588 568.408 237.387C574.886 237.187 574.116 240.551 574.116 240.551Z" fill="#D64338"/>
<path d="M572.289 427.854H774.984C774.984 427.854 804.251 356.23 768.837 325.157C761.774 318.961 752.139 314.375 739.181 312.294C661.269 299.783 572.289 427.854 572.289 427.854Z" fill="#31140C"/>
<path d="M728.318 427.854H774.984C774.984 427.854 804.25 356.23 768.836 325.157C763.693 327.313 758.76 332.232 756.174 342.471C751.305 361.774 736.462 404.719 728.318 427.854Z" fill="#532623"/>
<path d="M753.895 320.352C753.895 320.352 770.869 292.996 753.943 287.415C737.017 281.834 708.665 281.189 708.665 281.189L706.394 273.148C706.394 273.148 757.994 274.354 767.651 287.427C777.309 300.5 767.597 324.008 767.597 324.008" stroke="#31140C" stroke-width="2" stroke-miterlimit="10" stroke-linecap="round"/>
<path d="M568.409 237.387L674.178 233.498C674.178 233.498 706.865 230.274 709.429 237.387C711.994 244.5 704.933 311.433 704.933 311.433L688.254 427.854H543.465C543.465 427.854 553.597 365.981 546.544 357.092C539.49 348.203 522.818 329.99 537.566 296.381C552.315 262.772 568.409 237.387 568.409 237.387Z" fill="#FE5B44"/>
<path d="M692.168 255.613C690.245 263.266 675.429 397.793 666.452 427.854H714.037C714.037 427.854 735.704 299.809 727.367 264.254C727.367 264.254 725.475 239.163 709.429 237.387C693.383 235.612 692.168 255.613 692.168 255.613Z" fill="#FE5B44"/>
<path d="M692.168 255.614C690.244 263.267 675.429 397.793 666.452 427.854H714.037" stroke="#31140C" stroke-width="2" stroke-miterlimit="10" stroke-linecap="round"/>
<path d="M666.601 427.854H574.326L591.773 338.303H684.048L666.601 427.854Z" fill="#C1B081"/>
<path d="M620.825 395.26C620.825 395.26 624.404 396.358 628.394 395.26C632.384 394.163 636.659 389.992 642.074 390.322C647.489 390.651 650.624 394.382 650.624 394.382C650.624 394.382 648.914 395.26 645.779 394.602C642.644 393.943 644.924 396.358 648.914 397.236C652.904 398.114 663.038 398.896 668.009 397.236C672.98 395.576 673.054 395.199 672.543 398.209C672.033 401.219 670.308 409.527 666.451 411.063C662.594 412.6 652.333 415.453 643.499 413.697C634.664 411.941 624.689 410.624 617.421 411.063C610.154 411.502 620.825 395.26 620.825 395.26Z" fill="#FFCABC"/>
<path d="M614.43 390.322H621.698V417.648H613.148L614.43 390.322Z" fill="#DFD2A8"/>
<path d="M522.777 381.362C522.777 381.362 556.156 381.789 574.082 384.027C592.008 386.264 615.712 387.71 615.712 387.71V419.952C615.712 419.952 492.128 419.23 490.758 406.474C489.389 393.719 522.777 381.362 522.777 381.362Z" fill="#D64338"/>
<path d="M603.744 163.153C603.744 163.153 588.354 210.232 600.324 216.488C612.294 222.743 612.294 223.402 611.866 229.986C611.439 236.571 588.354 235.305 588.354 235.305L616.569 289.248L657.181 233.937C657.181 233.937 638.371 236.571 638.799 223.731C639.226 210.891 643.074 203.05 643.074 203.05C643.074 203.05 651.624 202.331 651.624 197.063C651.624 191.796 645.211 188.832 645.211 188.832C645.211 188.832 656.372 159.375 622.767 154.263C605.454 151.629 603.744 163.153 603.744 163.153Z" fill="#FFCABC"/>
<path d="M606.426 156.565C606.426 156.565 606.426 188.834 646.066 188.833C646.066 188.833 662.596 172.919 647.491 160.409C632.386 147.898 617.516 145.589 606.426 156.565Z" fill="#3E3377"/>
<path d="M595.334 261.811C595.334 261.811 624.901 256.324 641.468 263.567L617.279 293.418L595.334 261.811Z" fill="#C1B081"/>
<path d="M588.351 235.304C588.351 235.304 576.809 233.359 576.238 237.379C575.668 241.399 573.103 261.812 577.948 265.982C582.793 270.152 588.351 269.493 588.351 269.493C588.351 269.493 576.903 277.395 581.701 282.004C586.498 286.613 613.146 306.587 613.146 306.587C613.146 306.587 618.661 293.253 616.012 288.189C613.363 283.124 588.351 235.304 588.351 235.304Z" fill="#A5403E"/>
<path d="M657.18 233.937L616.484 289.248L613.148 306.587C613.148 306.587 638.94 289.686 645.495 282.004C652.05 274.322 647.49 271.03 645.78 269.055C644.07 267.079 658.605 270.81 662.31 264.445C666.015 258.08 666.452 233.782 666.452 233.782C666.452 233.782 658.782 231.761 657.18 233.937Z" fill="#A5403E"/>
<path d="M678.851 301.678L677.915 312.064L628.455 312.025L629.593 300.919L678.851 301.678Z" fill="#CFDE00"/>
<path d="M609.526 232.928C609.526 232.928 630.939 240.45 642.919 231.816" stroke="#31140C" stroke-width="5" stroke-miterlimit="10"/>
<path d="M626.223 170.286C626.223 170.286 633.811 183.455 651.481 184.553" stroke="#DFD2A8" stroke-width="2" stroke-miterlimit="10"/>
<path d="M635.658 166.557C635.658 166.557 639.1 178.107 653.141 181.129" stroke="#DFD2A8" stroke-width="2" stroke-miterlimit="10"/>
<path d="M656.557 175.575C656.557 175.575 661.94 148.195 653.827 141.485L619.554 137.101C619.554 137.101 624.704 133.1 631.847 132.72C640.459 132.262 655.704 135.853 662.733 138.792C677.918 145.14 667.603 178.979 667.603 178.979L656.557 175.575Z" fill="#A5403E"/>
<path d="M649.466 206.999C649.466 206.999 644.726 220.637 623.868 219.646L614.229 218.273" stroke="#31140C" stroke-width="5" stroke-miterlimit="10" stroke-linecap="round"/>
<path d="M619.536 217.667C619.359 218.947 617.868 219.876 616.205 219.74L611.277 219.337C609.614 219.201 608.409 218.053 608.585 216.772C608.761 215.492 610.253 214.564 611.916 214.699L616.843 215.102C618.507 215.238 619.712 216.386 619.536 217.667Z" fill="#A5403E"/>
<path d="M652.207 209.187C660.669 210.434 669.397 203.925 671.703 194.649C674.008 185.372 669.018 176.841 660.556 175.593C652.095 174.346 643.366 180.855 641.061 190.132C638.755 199.408 643.746 207.94 652.207 209.187Z" fill="#31140C"/>
<path d="M658.915 206.95C665.784 207.963 672.871 202.68 674.744 195.149C676.616 187.618 672.566 180.692 665.697 179.679C658.828 178.666 651.741 183.95 649.868 191.48C647.996 199.011 652.046 205.937 658.915 206.95Z" fill="#A5403E"/>
<path d="M605.18 193.285C605.18 193.285 600.75 199.203 603.529 199.697H606.308" stroke="#31140C" stroke-width="2" stroke-miterlimit="10" stroke-linecap="round"/>
<path d="M602.615 204.8C602.615 204.8 606.737 207.928 610.585 204.8" stroke="#31140C" stroke-width="2" stroke-miterlimit="10" stroke-linecap="round"/>
<path opacity="0.5" d="M624.367 196.491C627.025 196.491 629.18 196.066 629.18 195.543C629.18 195.019 627.025 194.594 624.367 194.594C621.709 194.594 619.554 195.019 619.554 195.543C619.554 196.066 621.709 196.491 624.367 196.491Z" fill="#DDAA9F"/>
<path d="M613.148 306.587L609.526 341.734" stroke="#31140C" stroke-width="2" stroke-miterlimit="10" stroke-linecap="round"/>
<path d="M287.921 99.6881V131.078L267.401 149.27L287.921 146.549V160.171H435.836V91.2509L287.921 99.6881Z" stroke="#DFD2A8" stroke-width="3" stroke-miterlimit="10"/>
<path d="M520.909 244.412V213.023L541.429 194.83L520.909 197.551V184.205H372.994V252.849L520.909 244.412Z" stroke="#DFD2A8" stroke-width="3" stroke-miterlimit="10"/>
<path d="M332.726 131.929C334.923 131.929 336.705 130.557 336.705 128.865C336.705 127.172 334.923 125.8 332.726 125.8C330.529 125.8 328.747 127.172 328.747 128.865C328.747 130.557 330.529 131.929 332.726 131.929Z" fill="#DFD2A8"/>
<path d="M362.223 131.929C364.421 131.929 366.202 130.557 366.202 128.865C366.202 127.172 364.421 125.8 362.223 125.8C360.026 125.8 358.244 127.172 358.244 128.865C358.244 130.557 360.026 131.929 362.223 131.929Z" fill="#DFD2A8"/>
<path d="M392.576 131.929C394.773 131.929 396.555 130.557 396.555 128.865C396.555 127.172 394.773 125.8 392.576 125.8C390.379 125.8 388.597 127.172 388.597 128.865C388.597 130.557 390.379 131.929 392.576 131.929Z" fill="#DFD2A8"/>
<path d="M418.226 219.504C420.423 219.504 422.205 218.132 422.205 216.44C422.205 214.747 420.423 213.375 418.226 213.375C416.029 213.375 414.247 214.747 414.247 216.44C414.247 218.132 416.029 219.504 418.226 219.504Z" fill="#DFD2A8"/>
<path d="M447.723 219.504C449.921 219.504 451.702 218.132 451.702 216.44C451.702 214.747 449.921 213.375 447.723 213.375C445.526 213.375 443.745 214.747 443.745 216.44C443.745 218.132 445.526 219.504 447.723 219.504Z" fill="#DFD2A8"/>
<path d="M478.076 219.504C480.274 219.504 482.055 218.132 482.055 216.44C482.055 214.747 480.274 213.375 478.076 213.375C475.879 213.375 474.097 214.747 474.097 216.44C474.097 218.132 475.879 219.504 478.076 219.504Z" fill="#DFD2A8"/>
</g>
<defs>
<clipPath id="clip0">
<rect width="855" height="428" fill="white"/>
</clipPath>
</defs>
</svg>
