<svg width="381" height="350" viewBox="0 0 381 350" fill="none" xmlns="http://www.w3.org/2000/svg">
<g clip-path="url(#clip0)">
<path d="M242.094 73.52H150.813C144.24 73.52 138.906 68.6413 138.906 62.6299V11.8097C138.906 5.79842 144.24 0.919678 150.813 0.919678H242.094C246.745 0.919678 250.968 3.38809 252.905 7.26495C254.857 11.1273 254.159 15.6721 251.127 18.91L233.966 37.2198L251.143 55.5442C254.175 58.7821 254.857 63.3269 252.921 67.1892C250.968 71.0516 246.745 73.52 242.094 73.52Z" fill="#D14238"/>
<path d="M150.812 117.08C144.24 117.08 138.906 112.201 138.906 106.19V11.8097C138.906 5.79842 144.24 0.919678 150.812 0.919678C157.385 0.919678 162.719 5.79842 162.719 11.8097V106.19C162.719 112.201 157.385 117.08 150.812 117.08Z" fill="#607D8B"/>
<path d="M216.059 189.971L182.245 216.107C180.022 217.849 177.324 218.721 174.625 218.721C171.609 218.721 168.592 217.704 166.211 215.526L150.812 201.442L135.414 215.526C130.969 219.592 123.984 219.737 119.38 216.107L86.5187 190.842L98.2662 171.385L140.335 100.963C142.399 97.4781 146.367 95.3001 150.812 95.3001C154.781 94.8645 159.067 97.3329 161.131 100.818L204.152 170.659L216.059 189.971Z" fill="#ECEFF1"/>
<path d="M150.812 0.919678C144.24 0.919678 138.906 5.79842 138.906 11.8097V103.359L140.335 100.963C142.399 97.4781 146.367 95.3001 150.812 95.3001V0.919678Z" fill="#546D79"/>
<path d="M150.812 95.3C146.367 95.3 142.399 97.4781 140.335 100.963L138.906 103.359L98.2662 171.385L86.5187 190.842L119.38 216.107C121.571 217.835 124.317 218.706 127.048 218.706C130.064 218.706 133.08 217.661 135.414 215.526L150.812 201.442V95.3Z" fill="#CDD0D2"/>
<path d="M369.094 349.401H208.883C204.74 349.401 200.898 347.426 198.723 344.203C196.564 340.98 196.39 336.943 198.279 333.574L275.145 195.634C277.146 192.047 281.146 189.768 285.544 189.695C290.56 190.015 294.053 191.8 296.164 195.314L379.508 333.255C381.54 336.624 381.492 340.733 379.349 344.058C377.206 347.368 373.316 349.401 369.094 349.401Z" fill="#166BBE"/>
<path d="M285.544 189.68C281.146 189.753 277.146 192.033 275.145 195.619L198.279 333.56C196.39 336.943 196.564 340.965 198.723 344.188C200.898 347.426 204.74 349.401 208.883 349.401H285.75V189.695C285.686 189.695 285.623 189.68 285.544 189.68Z" fill="#1667B7"/>
<path d="M304.006 333.139L216.059 189.971L182.245 216.107C180.022 217.849 177.324 218.721 174.625 218.721C171.609 218.721 168.592 217.704 166.211 215.526L150.812 201.442L135.414 215.526C130.969 219.592 123.984 219.737 119.38 216.107L86.5187 190.842L1.42873 333.284C-0.635017 336.624 -0.476267 340.689 1.58748 344.029C3.80998 347.368 7.77873 349.401 11.9062 349.401H293.688C297.974 349.401 301.784 347.368 304.006 344.029C306.07 340.689 306.07 336.478 304.006 333.139Z" fill="#436AAC"/>
<path d="M86.5187 190.842L1.42873 333.284C-0.635017 336.623 -0.476267 340.689 1.58748 344.029C3.80998 347.368 7.77873 349.401 11.9062 349.401H150.812V201.442L135.414 215.526C133.08 217.646 130.064 218.706 127.048 218.706C124.301 218.706 121.571 217.835 119.38 216.107L86.5187 190.842Z" fill="#325288"/>
</g>
<defs>
<clipPath id="clip0">
<rect width="381" height="348.482" fill="white" transform="translate(0 0.919678)"/>
</clipPath>
</defs>
</svg>
