<svg id="Layer_1" enable-background="new 0 0 128 128" height="512" viewBox="0 0 128 128" width="512" xmlns="http://www.w3.org/2000/svg"><g><g fill="#fff06d"><path d="m64 1.7 6.5 13.2 14.4 2.1-10.4 10.2 2.4 14.4-12.9-6.8-12.9 6.8 2.4-14.4-10.4-10.2 14.4-2.1z"/><path d="m109.4 18.6 5.2 10.5 11.7 1.7-8.5 8.3 2 11.5-10.4-5.4-10.4 5.4 2-11.5-8.4-8.3 11.6-1.7z"/><path d="m18.6 18.6-5.2 10.5-11.6 1.7 8.4 8.3-2 11.5 10.4-5.4 10.4 5.4-2-11.5 8.4-8.3-11.6-1.7z"/></g><g><path d="m67.6 69.7c-2.3 0-4.4-1.1-5.7-3l-1.9-2.7-1.9 2.7c-1.3 1.9-3.5 3-5.7 3h-3.4v5.3c0 .9.1 1.9.3 2.8l.9 4.1c.4 2.2.9 4.4 1.6 6.5 2.7 6.7 10.4 9.9 17.1 7.2 3.3-1.3 5.8-3.9 7.2-7.2.7-2.1 1.3-4.3 1.6-6.5l.9-4.1c.2-.9.4-1.8.4-2.8v-5.3z" fill="#fed9b6"/><path d="m79.4 74.2c-.1 0-.3 0-.4 0v.8c0 .9-.1 1.9-.3 2.8l-1 4.2c2.1.9 4.5 0 5.4-2.1s0-4.5-2.1-5.4c-.5-.2-1.1-.3-1.6-.3z" fill="#febb9c"/><path d="m49.3 77.8c-.2-.9-.3-1.8-.3-2.8v-.8c-.2 0-.4 0-.6 0-2.2 0-4.1 1.8-4.1 4.1 0 2.2 1.8 4.1 4.1 4.1.6 0 1.2-.1 1.8-.4z" fill="#febb9c"/><path d="m58.1 66.7 1.9-2.7 1.9 2.7c1.3 1.9 3.4 3 5.7 3h11.4v-2.4c0-8.3-6.7-15-14.9-15s-15.1 6.7-15.1 15v2.4h3.3c2.3 0 4.5-1.1 5.8-3z" fill="#54528e"/><path d="m73.8 101.8c-.4-.3-.7-.7-.9-1.2-.2-.4-.4-.9-.5-1.4l-.7-5.1c-4.6 3.4-10.9 3.4-15.5 0l-.7 5.1c-.2 1-.7 1.8-1.4 2.5l9.8 7.5z" fill="#febb9c"/><path d="m74.2 114.6 4.5-11.5c-.6-.1-1.2-.1-1.8-.2-1.1-.1-2.2-.5-3.2-1.2l-9.8 7.5z" fill="#ecfaff"/><path d="m87.3 104.1c-1.9-.4-3.9-.7-5.8-.8-.9-.1-1.8-.2-2.7-.2l-4.5 11.5-10.3-5.4-10.2 5.4-4.6-11.6c-.7.1-1.4.1-2.1.2-2.2.1-4.3.4-6.4.9-5.8 1.6-9.9 6.9-9.9 12.9v9.2h66.3v-9.2c.1-6-4-11.3-9.8-12.9z" fill="#c4e6fe"/><path d="m64 109.2-9.8-7.5c-.9.8-2.1 1.3-3.3 1.2-.5.1-1.1.1-1.6.1l4.6 11.6z" fill="#ecfaff"/></g></g><path d="m61.4 80.2.4-2.8c.1-1 1-1.6 2-1.5s1.6 1 1.5 2c-.2 1.2-.3 2.1-.3 2h.3c1 0 1.7.8 1.7 1.7s-.8 1.7-1.7 1.7h-1.2c-1.6.1-2.9-1.4-2.7-3.1zm9.2-2.1c1.8 0 3.2-1.4 3.2-3.2s-1.4-3.2-3.2-3.2-3.2 1.4-3.2 3.2 1.4 3.2 3.2 3.2zm-11.8 6.6c-.7.6-.9 1.7-.2 2.5 2.9 3 7.9 3.1 10.7 0 .7-.7.5-1.8-.2-2.5-.7-.6-1.8-.5-2.5.2-1.1 1.1-3.6 1.6-5.3.1-.6-.8-1.7-.9-2.5-.3zm1.8-9.8c0-1.8-1.4-3.2-3.2-3.2s-3.2 1.4-3.2 3.2 1.4 3.2 3.2 3.2 3.2-1.4 3.2-3.2zm14-20.5c-.7-.6-1.8-.5-2.5.2-.6.7-.5 1.8.2 2.5.6.5 1.1 1 1.6 1.6.6.7 1.7.8 2.5.2.7-.6.8-1.7.2-2.5-.5-.7-1.2-1.4-2-2zm24.3 62.6v9.2c0 1-.8 1.7-1.7 1.7h-66.3c-1 0-1.7-.8-1.7-1.7v-9.2c0-6.8 4.6-12.8 11.1-14.6 3.2-.8 5.5-.9 10.7-1.2 1.5-.1 2.5-.7 2.9-2.3l.5-4c-3.3-2.8-4.7-6.3-5.5-10.7-3.5.2-6.2-2.5-6.2-5.8 0-2.8 1.9-5.1 4.6-5.7v-5.3c0-9.2 7.5-16.7 16.7-16.7 1 0 1.7.8 1.7 1.7s-.7 1.7-1.7 1.7c-7.3 0-13.2 5.9-13.2 13.2v.7h1.6c1.7 0 3.3-.8 4.3-2.2l1.9-2.7c.7-1 2.2-1 2.9 0l1.9 2.7c1 1.4 2.6 2.2 4.3 2.2h9.5v-.7c0-1 .8-1.7 1.7-1.7 1 0 1.7.8 1.7 1.7v5.3c3.1.7 5.1 3.9 4.3 7-.6 2.7-3.1 4.6-5.9 4.5-.7 4.4-2.1 7.9-5.5 10.7l.5 4.1c.2 1.5 1.4 2 3.1 2.2 4.2.5 6.9.3 10.5 1.2 6.7 1.9 11.3 7.9 11.3 14.7zm-22.6-12.4c-.8-.1-1.6-.4-2.3-.7l-6.7 5.1 6 3.2zm4.3-28.2c-.2 1.4-.5 2.8-.8 4.2 2.1-.5 2.5-3.1.8-4.2zm-32.4 4.2c-.4-1.4-.6-2.9-.8-4.3-1.9 1.1-1.4 4 .8 4.3zm5.3 7.2c3.8 9.4 17.2 9.4 21 0 1.1-3 1.6-7.2 2.4-10.3.2-.8.3-1.6.3-2.4v-3.6h-9.6c-5.6 0-7.5-4.2-7.6-4.4-.2.2-2.4 4.4-7.7 4.4h-1.6v3.5c0 .6.1 1.2.2 1.8.3 1.4 2.1 9.5 2.6 11zm4.1 9.1c-.3 1.8-.1 2.7-1 4.4l7.4 5.7 7.3-5.6c-.9-2-.5-2.1-1-4.5-4 1.9-8.6 1.9-12.7 0zm-5.8 7.7 3 7.5 6-3.2-6.6-5.1c-.8.5-1.6.7-2.4.8zm43.5 12.3c0-5.2-3.4-9.7-8.5-11.1-2.3-.6-3.5-.6-7-.8l-4.1 10.3c-.4 1-1.5 1.4-2.4.9l-9.4-4.9-9.4 4.9c-.9.5-2.1.1-2.4-.9l-4.1-10.3c-1.7.1-3.7.1-6.9.9-5.1 1.4-8.6 6-8.6 11.2v7.5h62.8zm-53.4-98.6c-1-1-.4-2.8 1-3l13.5-2 6-12.3c.6-1.3 2.5-1.3 3.1 0l6.1 12.3 13.5 2c1.4.2 2 2 1 3l-9.8 9.6 2.3 13.5c.2 1.4-1.3 2.5-2.5 1.8l-12.1-6.4-12.1 6.4c-1.3.7-2.8-.4-2.5-1.8l2.3-13.5zm4.9-.1 7.9 7.7c.4.4.6 1 .5 1.5l-1.9 10.9 9.8-5.1c.5-.3 1.1-.3 1.6 0l9.8 5.1-1.9-10.9c-.1-.6.1-1.1.5-1.5l7.9-7.7-10.9-1.6c-.6-.1-1.1-.4-1.3-1l-4.8-9.8-4.9 9.9c-.3.5-.7.9-1.3 1zm80.6 13.9-7.8 7.6 1.8 10.7c.3 1.4-1.3 2.5-2.5 1.8l-9.6-5-9.6 5c-1.3.7-2.8-.4-2.5-1.8l1.8-10.7-7.8-7.6c-1-1-.4-2.8 1-3l10.7-1.6 4.8-9.7c.6-1.3 2.5-1.3 3.1 0l4.8 9.7 10.7 1.6c1.6.3 2.1 2 1.1 3zm-5 0-8.1-1.2c-.6-.1-1.1-.4-1.3-1l-3.6-7.4-3.6 7.4c-.3.5-.7.9-1.3 1l-8.1 1.2 5.9 5.7c.4.4.6 1 .5 1.5l-1.4 8.1 7.3-3.8c.5-.3 1.1-.3 1.6 0l7.3 3.8-1.4-8.1c-.1-.6.1-1.1.5-1.5zm-91.6 18.3-1.8-10.7 7.8-7.6c1-1 .4-2.8-1-3l-10.8-1.5-4.8-9.7c-.4-.9-1.5-1.2-2.3-.8-.9.4-1.2 1.5-.8 2.3l5.2 10.6c.3.5.7.9 1.3 1l8.1 1.2-5.9 5.7c-.4.4-.6 1-.5 1.5l1.4 8.1-7.3-3.8c-.5-.3-1.1-.3-1.6 0l-7.3 3.8 1.4-8.1c.1-.6-.1-1.1-.5-1.5l-5.9-5.7 8.1-1.2c1-.2 1.6-1.1 1.4-2s-1-1.6-1.9-1.4l-11.5 1.5c-1.4.2-2 2-1 3l7.8 7.6-1.9 10.7c-.3 1.4 1.3 2.5 2.5 1.8l9.6-5 9.6 5c1.3.7 2.8-.4 2.6-1.8z"/></svg>