<svg height="512" viewBox="0 0 64 64" width="512" xmlns="http://www.w3.org/2000/svg" xmlns:xlink="http://www.w3.org/1999/xlink"><linearGradient id="New_Gradient_Swatch" gradientUnits="userSpaceOnUse" x1="32" x2="32" y1="63.788" y2="-.09"><stop offset="0" stop-color="#e93e3a"/><stop offset=".35" stop-color="#ed683c"/><stop offset=".7" stop-color="#f3903f"/><stop offset="1" stop-color="#fdc70c"/></linearGradient><linearGradient id="New_Gradient_Swatch-2" x1="11" x2="11" xlink:href="#New_Gradient_Swatch" y1="63.788" y2="-.09"/><linearGradient id="New_Gradient_Swatch-3" x1="15" x2="15" xlink:href="#New_Gradient_Swatch" y1="63.788" y2="-.09"/><linearGradient id="New_Gradient_Swatch-5" x1="49" x2="49" xlink:href="#New_Gradient_Swatch" y1="63.788" y2="-.09"/><linearGradient id="New_Gradient_Swatch-6" x1="53" x2="53" xlink:href="#New_Gradient_Swatch" y1="63.788" y2="-.09"/><linearGradient id="New_Gradient_Swatch-7" x1="16" x2="16" xlink:href="#New_Gradient_Swatch" y1="63.788" y2="-.09"/><linearGradient id="New_Gradient_Swatch-8" x1="12" x2="12" xlink:href="#New_Gradient_Swatch" y1="63.788" y2="-.09"/><linearGradient id="New_Gradient_Swatch-9" x1="20" x2="20" xlink:href="#New_Gradient_Swatch" y1="63.788" y2="-.09"/><linearGradient id="New_Gradient_Swatch-10" x1="24" x2="24" xlink:href="#New_Gradient_Swatch" y1="63.788" y2="-.09"/><linearGradient id="New_Gradient_Swatch-11" x1="28" x2="28" xlink:href="#New_Gradient_Swatch" y1="63.788" y2="-.09"/><linearGradient id="New_Gradient_Swatch-13" x1="36" x2="36" xlink:href="#New_Gradient_Swatch" y1="63.788" y2="-.09"/><linearGradient id="New_Gradient_Swatch-14" x1="40" x2="40" xlink:href="#New_Gradient_Swatch" y1="63.788" y2="-.09"/><linearGradient id="New_Gradient_Swatch-15" x1="44" x2="44" xlink:href="#New_Gradient_Swatch" y1="63.788" y2="-.09"/><linearGradient id="New_Gradient_Swatch-16" x1="48" x2="48" xlink:href="#New_Gradient_Swatch" y1="63.788" y2="-.09"/><linearGradient id="New_Gradient_Swatch-17" x1="52" x2="52" xlink:href="#New_Gradient_Swatch" y1="63.788" y2="-.09"/><linearGradient id="New_Gradient_Swatch-20" x1="29" x2="29" xlink:href="#New_Gradient_Swatch" y1="63.788" y2="-.09"/><linearGradient id="New_Gradient_Swatch-21" x1="35" x2="35" xlink:href="#New_Gradient_Swatch" y1="63.788" y2="-.09"/><linearGradient id="New_Gradient_Swatch-22" x1="59" x2="59" xlink:href="#New_Gradient_Swatch" y1="63.788" y2="-.09"/><linearGradient id="New_Gradient_Swatch-23" x1="5" x2="5" xlink:href="#New_Gradient_Swatch" y1="63.788" y2="-.09"/><linearGradient id="New_Gradient_Swatch-28" x1="58" x2="58" xlink:href="#New_Gradient_Swatch" y1="63.788" y2="-.09"/><linearGradient id="New_Gradient_Swatch-29" x1="6" x2="6" xlink:href="#New_Gradient_Swatch" y1="63.788" y2="-.09"/><path d="m61.9 54.553-5.9-11.789v-31.764a3 3 0 0 0 -3-3h-13v2h13a1 1 0 0 1 1 1v31h-44v-31a1 1 0 0 1 1-1h13v-2h-13a3 3 0 0 0 -3 3v31.764l-5.895 11.789a1 1 0 0 0 -.105.447v5a2 2 0 0 0 2 2h56a2 2 0 0 0 2-2v-5a1 1 0 0 0 -.1-.447zm-7.518-10.553 5 10h-54.764l5-10zm-25.382 12h6v1h-6zm-25 4v-4h23v1a2 2 0 0 0 2 2h6a2 2 0 0 0 2-2v-1h23v4z" fill="url(#New_Gradient_Swatch)"/><path d="m10 50h2v2h-2z" fill="url(#New_Gradient_Swatch-2)"/><path d="m14 50h2v2h-2z" fill="url(#New_Gradient_Swatch-3)"/><path d="m18 50h28v2h-28z" fill="url(#New_Gradient_Swatch)"/><path d="m48 50h2v2h-2z" fill="url(#New_Gradient_Swatch-5)"/><path d="m52 50h2v2h-2z" fill="url(#New_Gradient_Swatch-6)"/><path d="m15 46h2v2h-2z" fill="url(#New_Gradient_Swatch-7)"/><path d="m11 46h2v2h-2z" fill="url(#New_Gradient_Swatch-8)"/><path d="m19 46h2v2h-2z" fill="url(#New_Gradient_Swatch-9)"/><path d="m23 46h2v2h-2z" fill="url(#New_Gradient_Swatch-10)"/><path d="m27 46h2v2h-2z" fill="url(#New_Gradient_Swatch-11)"/><path d="m31 46h2v2h-2z" fill="url(#New_Gradient_Swatch)"/><path d="m35 46h2v2h-2z" fill="url(#New_Gradient_Swatch-13)"/><path d="m39 46h2v2h-2z" fill="url(#New_Gradient_Swatch-14)"/><path d="m43 46h2v2h-2z" fill="url(#New_Gradient_Swatch-15)"/><path d="m47 46h2v2h-2z" fill="url(#New_Gradient_Swatch-16)"/><path d="m51 46h2v2h-2z" fill="url(#New_Gradient_Swatch-17)"/><path d="m22 14v-2h-9a1 1 0 0 0 -1 1v26a1 1 0 0 0 1 1h38a1 1 0 0 0 1-1v-26a1 1 0 0 0 -1-1h-9v2h8v24h-36v-24z" fill="url(#New_Gradient_Swatch)"/><path d="m24 19a2.972 2.972 0 0 0 .573 1.749l-1.873 1.251h-.7a5.006 5.006 0 0 0 -5 5v.184a3 3 0 0 0 -2 2.816h2a1 1 0 0 1 2 0h2a3 3 0 0 0 -2-2.816v-.184a3 3 0 0 1 3-3v7a1 1 0 0 0 .105.447l2 4a1 1 0 0 0 .895.553h14a1 1 0 0 0 .9-.553l2-4a1 1 0 0 0 .1-.447v-7a3 3 0 0 1 3 3v.184a3 3 0 0 0 -2 2.816h2a1 1 0 0 1 2 0h2a3 3 0 0 0 -2-2.816v-.184a5.006 5.006 0 0 0 -5-5h-.7l-1.876-1.251a2.972 2.972 0 0 0 .576-1.749v-6a3 3 0 0 0 -3-3h-4v-2.184a3 3 0 1 0 -2 0v2.184h-4a3 3 0 0 0 -3 3zm8-15a1 1 0 1 1 -1 1 1 1 0 0 1 1-1zm6.382 30h-12.764l-1-2h14.764zm-10.24-4a3.981 3.981 0 0 1 7.716 0zm11.858 0h-2.09a5.993 5.993 0 0 0 -11.82 0h-2.09v-6.465l2.3-1.535h11.4l2.3 1.535zm-6-10h-4v-1h4zm-8-7a1 1 0 0 1 1-1h10a1 1 0 0 1 1 1v6a1 1 0 0 1 -1 1h-1v-2a1 1 0 0 0 -1-1h-6a1 1 0 0 0 -1 1v2h-1a1 1 0 0 1 -1-1z" fill="url(#New_Gradient_Swatch)"/><path d="m28 14h2v2h-2z" fill="url(#New_Gradient_Swatch-20)"/><path d="m34 14h2v2h-2z" fill="url(#New_Gradient_Swatch-21)"/><path d="m58 30h2v2h-2z" fill="url(#New_Gradient_Swatch-22)"/><g fill="url(#New_Gradient_Swatch-23)"><path d="m4 30h2v2h-2z"/><path d="m4 24h2v2h-2z"/><path d="m4 18h2v2h-2z"/></g><path d="m58 24h2v2h-2z" fill="url(#New_Gradient_Swatch-22)"/><path d="m58 18h2v2h-2z" fill="url(#New_Gradient_Swatch-22)"/><path d="m57 5h2v2h-2z" fill="url(#New_Gradient_Swatch-28)"/><path d="m5 5h2v2h-2z" fill="url(#New_Gradient_Swatch-29)"/></svg>